<svg id="Layer_1" data-name="Layer 1" xmlns="http://www.w3.org/2000/svg" viewBox="0 0 299.35 66.12"><defs><style>.cls-1{opacity:0.88;}.cls-2{fill:#93b48e;}.cls-3{fill:#2b3a3b;}.cls-4{fill:#5f9955;}</style></defs><g class="cls-1"><rect class="cls-2" x="7.67" y="36.28" width="285.84" height="0.56"/></g><path class="cls-3" d="M8.9,59.55a5.22,5.22,0,0,1-2.21-1.74,4.43,4.43,0,0,1-.8-2.64H9A2.83,2.83,0,0,0,9.84,57a3.2,3.2,0,0,0,2.23.73A3.4,3.4,0,0,0,14.38,57a2.34,2.34,0,0,0,.83-1.85,2,2,0,0,0-.52-1.43,3.38,3.38,0,0,0-1.28-.85,18.53,18.53,0,0,0-2.12-.66,19.58,19.58,0,0,1-2.78-.92,4.6,4.6,0,0,1-1.82-1.44,4.17,4.17,0,0,1-.75-2.61,4.65,4.65,0,0,1,.75-2.64A4.78,4.78,0,0,1,8.8,42.9a7.71,7.71,0,0,1,3.14-.6,6.53,6.53,0,0,1,4.16,1.27,4.67,4.67,0,0,1,1.8,3.48H14.73a2.28,2.28,0,0,0-.9-1.63,3.32,3.32,0,0,0-2.19-.68,3.1,3.1,0,0,0-2,.63,2.17,2.17,0,0,0-.78,1.8,1.81,1.81,0,0,0,.49,1.32,3.36,3.36,0,0,0,1.25.82,17.86,17.86,0,0,0,2.06.65,21.66,21.66,0,0,1,2.82,1,4.72,4.72,0,0,1,1.86,1.47A4.24,4.24,0,0,1,18.1,55a4.71,4.71,0,0,1-.72,2.51,5.13,5.13,0,0,1-2.08,1.9,6.87,6.87,0,0,1-3.23.72A7.86,7.86,0,0,1,8.9,59.55Z"/><path class="cls-3" d="M24.36,44.84V50h6V52.3h-6v5.36h6.78V60H21.49V42.5h9.65v2.34Z"/><path class="cls-3" d="M46.25,50.24a4.68,4.68,0,0,1-2,1.92,7.44,7.44,0,0,1-3.55.75H37.53V60H34.66V42.53h6a7.65,7.65,0,0,1,3.41.69,4.76,4.76,0,0,1,2.08,1.87,5.16,5.16,0,0,1,.7,2.64A5.25,5.25,0,0,1,46.25,50.24Zm-3.12-.41a2.71,2.71,0,0,0,.8-2.1q0-2.86-3.24-2.87H37.53v5.71h3.16A3.52,3.52,0,0,0,43.13,49.83Z"/><path class="cls-3" d="M60.9,42.53v2.33H56.25V60H53.38V44.86H48.71V42.53Z"/><path class="cls-3" d="M66.65,44.84V50h6V52.3h-6v5.36h6.79V60H63.79V42.5h9.65v2.34Z"/><path class="cls-3" d="M95.35,42.53V60H92.49V48L87.16,60h-2L79.82,48V60H77V42.53h3.09l6.13,13.69,6.11-13.69Z"/><path class="cls-3" d="M110.86,52.5a4.38,4.38,0,0,1,1,2.79,4.32,4.32,0,0,1-.69,2.4,4.65,4.65,0,0,1-2,1.69,7.05,7.05,0,0,1-3,.61h-7V42.53h6.66a7.22,7.22,0,0,1,3.07.6,4.45,4.45,0,0,1,1.93,1.62,4.1,4.1,0,0,1,.66,2.27,3.89,3.89,0,0,1-.81,2.52A4.63,4.63,0,0,1,108.47,51,3.86,3.86,0,0,1,110.86,52.5ZM102,49.86h3.54a3.39,3.39,0,0,0,2.2-.64,2.21,2.21,0,0,0,.79-1.84,2.27,2.27,0,0,0-.79-1.85,3.29,3.29,0,0,0-2.2-.67H102ZM108.15,57a2.43,2.43,0,0,0,.82-2,2.56,2.56,0,0,0-.88-2,3.45,3.45,0,0,0-2.33-.75H102v5.46h3.87A3.45,3.45,0,0,0,108.15,57Z"/><path class="cls-3" d="M117.82,44.84V50h6V52.3h-6v5.36h6.79V60H115V42.5h9.65v2.34Z"/><path class="cls-3" d="M137.2,60l-4-7H131v7h-2.87V42.53h6a7.47,7.47,0,0,1,3.4.7,4.93,4.93,0,0,1,2.09,1.88,5.15,5.15,0,0,1,.69,2.64,5.26,5.26,0,0,1-1,3.11,5,5,0,0,1-3.06,1.89L140.61,60ZM131,50.72h3.17a3.29,3.29,0,0,0,2.42-.81,2.86,2.86,0,0,0,.82-2.16,2.78,2.78,0,0,0-.81-2.12,3.41,3.41,0,0,0-2.43-.77H131Z"/><path class="cls-3" d="M151.75,56.1c1.61-1.39,2.88-2.54,3.81-3.43a15.31,15.31,0,0,0,2.32-2.81,5.37,5.37,0,0,0,.93-2.91,3.54,3.54,0,0,0-.72-2.36,2.75,2.75,0,0,0-2.25-.86,2.93,2.93,0,0,0-2.3.94,3.93,3.93,0,0,0-.86,2.53h-2.77a5.57,5.57,0,0,1,5.91-5.91,5.88,5.88,0,0,1,4.28,1.51,5.38,5.38,0,0,1,1.55,4,7.13,7.13,0,0,1-.92,3.48,14,14,0,0,1-2.18,3q-1.28,1.32-3.23,3.06l-1.13,1h8v2.39H149.94V57.66Z"/><path class="cls-3" d="M166.41,42.55a6.57,6.57,0,0,1,4.21-1.31,6.82,6.82,0,0,1,3,.63,4.52,4.52,0,0,1,1.94,1.71,4.66,4.66,0,0,1,.65,2.44,4.3,4.3,0,0,1-.83,2.66,4.06,4.06,0,0,1-2,1.49v.1a4.25,4.25,0,0,1,2.31,1.64,5.29,5.29,0,0,1,.83,3.06,5.13,5.13,0,0,1-.68,2.63,4.66,4.66,0,0,1-2,1.83,7.12,7.12,0,0,1-3.19.66,6.91,6.91,0,0,1-4.46-1.39,5.18,5.18,0,0,1-1.88-4h2.77a3.13,3.13,0,0,0,1,2.17,3.61,3.61,0,0,0,2.51.84,3.16,3.16,0,0,0,2.36-.84,2.92,2.92,0,0,0,.83-2.17,2.78,2.78,0,0,0-1.11-2.5,6.28,6.28,0,0,0-3.44-.74h-.65V49.08h.68a6.12,6.12,0,0,0,3.1-.67,2.24,2.24,0,0,0,1.07-2.06,2.49,2.49,0,0,0-.78-1.93,3.76,3.76,0,0,0-4.4,0,3,3,0,0,0-.93,1.78h-2.78A4.81,4.81,0,0,1,166.41,42.55Z"/><path class="cls-3" d="M190.6,49.69V52.1H180.27V49.69Z"/><path class="cls-3" d="M195.88,56.1c1.61-1.39,2.88-2.54,3.81-3.43A15.31,15.31,0,0,0,202,49.86a5.37,5.37,0,0,0,.93-2.91,3.54,3.54,0,0,0-.72-2.36,2.75,2.75,0,0,0-2.24-.86,2.9,2.9,0,0,0-2.3.94,3.88,3.88,0,0,0-.87,2.53H194a6.16,6.16,0,0,1,10.2-4.4,5.37,5.37,0,0,1,1.54,4,7.13,7.13,0,0,1-.92,3.48,14,14,0,0,1-2.18,3q-1.27,1.32-3.23,3.06l-1.13,1h8v2.39H194.07V57.66Z"/><path class="cls-3" d="M208.44,56.17V54l8.45-12.11h3.47V53.68h2.33v2.49h-2.33V60h-2.82V56.17Zm9.23-11.36-5.93,8.87h5.93Z"/><path class="cls-3" d="M228.57,56.55l-3,6.94h-1.86l1.79-6.94Z"/><path class="cls-3" d="M238.83,56.1c1.61-1.39,2.88-2.54,3.81-3.43A15.31,15.31,0,0,0,245,49.86a5.37,5.37,0,0,0,.93-2.91,3.54,3.54,0,0,0-.72-2.36,2.75,2.75,0,0,0-2.25-.86,2.89,2.89,0,0,0-2.29.94,3.88,3.88,0,0,0-.87,2.53H237a6.15,6.15,0,0,1,10.19-4.4,5.38,5.38,0,0,1,1.55,4,7.13,7.13,0,0,1-.92,3.48,14,14,0,0,1-2.18,3q-1.27,1.32-3.23,3.06l-1.13,1h8v2.39H237V57.66Z"/><path class="cls-3" d="M253.22,43.79c1-1.63,2.66-2.45,5.06-2.45s4.08.82,5.06,2.45a13.25,13.25,0,0,1,1.47,6.8,13.5,13.5,0,0,1-1.47,6.88c-1,1.65-2.66,2.47-5.06,2.47s-4.08-.82-5.06-2.47a13.5,13.5,0,0,1-1.47-6.88A13.25,13.25,0,0,1,253.22,43.79Zm8.52,3.36a4.73,4.73,0,0,0-1.07-2.3,3.65,3.65,0,0,0-4.78,0,4.73,4.73,0,0,0-1.07,2.3,19.69,19.69,0,0,0-.26,3.44,20.84,20.84,0,0,0,.25,3.55,4.52,4.52,0,0,0,1.07,2.31,3.71,3.71,0,0,0,4.8,0,4.52,4.52,0,0,0,1.07-2.31,20.84,20.84,0,0,0,.25-3.55A19.69,19.69,0,0,0,261.74,47.15Z"/><path class="cls-3" d="M269.44,56.1c1.61-1.39,2.88-2.54,3.81-3.43a15.31,15.31,0,0,0,2.32-2.81A5.37,5.37,0,0,0,276.5,47a3.54,3.54,0,0,0-.72-2.36,2.75,2.75,0,0,0-2.25-.86,2.89,2.89,0,0,0-2.29.94,3.88,3.88,0,0,0-.87,2.53H267.6a6.15,6.15,0,0,1,10.19-4.4,5.34,5.34,0,0,1,1.55,4,7.13,7.13,0,0,1-.92,3.48,14,14,0,0,1-2.18,3Q275,54.61,273,56.35l-1.13,1h8v2.39H267.63V57.66Z"/><path class="cls-3" d="M291.2,44.18a3.2,3.2,0,0,0-2-.57,3.27,3.27,0,0,0-3,1.52,9.94,9.94,0,0,0-1,5,4.31,4.31,0,0,1,1.91-1.71,6.08,6.08,0,0,1,2.71-.61,5.81,5.81,0,0,1,2.93.72,5,5,0,0,1,2,2.07,6.85,6.85,0,0,1,.71,3.24,7,7,0,0,1-.69,3.15,5.14,5.14,0,0,1-2,2.17,6.39,6.39,0,0,1-3.27.79,6.47,6.47,0,0,1-4.06-1.14,6,6,0,0,1-2.06-3.23,19.19,19.19,0,0,1-.59-5.2q0-9.21,6.48-9.2a5.52,5.52,0,0,1,4,1.36,5.38,5.38,0,0,1,1.7,3.34h-2.64A3.07,3.07,0,0,0,291.2,44.18Zm-4.63,7a3.28,3.28,0,0,0-1.07,2.65,3.79,3.79,0,0,0,1,2.76,3.69,3.69,0,0,0,2.78,1,3.24,3.24,0,0,0,2.5-1,3.66,3.66,0,0,0,.92-2.61,4,4,0,0,0-.9-2.73,3.32,3.32,0,0,0-2.62-1A3.84,3.84,0,0,0,286.57,51.18Z"/><path class="cls-4" d="M6.74,6.18H11.9V29.59H6.74Z"/><path class="cls-4" d="M16.6,6.18h7l10,16.26h.07V6.18h5.15V29.59H32L21.82,12.92h-.06V29.59H16.6Z"/><path class="cls-4" d="M43.75,6.18h15.7v4.76H48.91V15.7h9.75v4.76H48.91v9.13H43.75Z"/><path class="cls-4" d="M63.36,6.18h15.9v4.76H68.52V15.3H78.67v4.76H68.52v4.76H79.86v4.77H63.36Z"/><path class="cls-4" d="M99.3,12.26a5.52,5.52,0,0,0-4.43-1.92c-3.9,0-6.78,3.18-6.78,7.54s2.88,7.54,6.62,7.54a5.59,5.59,0,0,0,4.82-2.51l4.3,3.2a10.2,10.2,0,0,1-8.46,4.07c-7.31,0-12.63-4.79-12.63-12.3s5.32-12.3,12.63-12.3c2.61,0,5.92.89,7.9,3.44Z"/><path class="cls-4" d="M111.18,10.74H104.5V6.18H123v4.56h-6.68V29.59h-5.15Z"/><path class="cls-4" d="M125.56,6.18h5.16V29.59h-5.16Z"/><path class="cls-4" d="M146.79,5.58c7.31,0,12.63,4.79,12.63,12.3s-5.32,12.3-12.63,12.3-12.63-4.79-12.63-12.3S139.48,5.58,146.79,5.58Zm0,19.84c4.4,0,7.28-3.18,7.28-7.54s-2.88-7.54-7.28-7.54-7.27,3.18-7.27,7.54S142.39,25.42,146.79,25.42Z"/><path class="cls-4" d="M182.67,20.56c0,5.52-3.37,9.62-9.85,9.62s-9.89-4.1-9.89-9.62V6.18h5.16V20.36a4.72,4.72,0,1,0,9.42,0V6.18h5.16Z"/><path class="cls-4" d="M199,11.9a5,5,0,0,0-3.74-1.56c-1.45,0-3.47.66-3.47,2.42,0,4.26,10.78,1.52,10.78,9.72,0,5.22-4.2,7.7-9,7.7a11.12,11.12,0,0,1-7.87-2.94l3.67-4a5.74,5.74,0,0,0,4.5,2.22c1.69,0,3.57-.79,3.57-2.45,0-4.3-11-2-11-9.78,0-5,4.34-7.61,8.93-7.61A10.56,10.56,0,0,1,202.55,8Z"/><path class="cls-4" d="M213,23.34h-8.14v-4H213Z"/><path class="cls-4" d="M213.89,6.18h5.89l5.78,15.34h.07l5.89-15.34H237l-9.66,23.41h-4.13Z"/><path class="cls-4" d="M237.17,6.18h5.89l5.79,15.34h.06L254.8,6.18h5.52l-9.66,23.41h-4.13Z"/><path class="cls-4" d="M262.7,6.18h5.16V29.59H262.7Z"/><path class="cls-4" d="M287.87,12.26a5.55,5.55,0,0,0-4.43-1.92c-3.9,0-6.78,3.18-6.78,7.54s2.88,7.54,6.61,7.54a5.62,5.62,0,0,0,4.83-2.51l4.3,3.2a10.22,10.22,0,0,1-8.47,4.07c-7.3,0-12.63-4.79-12.63-12.3s5.33-12.3,12.63-12.3A10.06,10.06,0,0,1,291.84,9Z"/></svg>