<svg id="Layer_1" data-name="Layer 1" xmlns="http://www.w3.org/2000/svg" viewBox="0 0 299.35 66.12"><defs><style>.cls-1{fill:none;stroke:#93b48e;stroke-miterlimit:10;stroke-width:0.56px;opacity:0.88;}.cls-2{font-size:25.13px;fill:#2b3a3b;font-family:Poppins-Medium, Poppins;font-weight:500;}.cls-3{fill:#5f9955;}</style></defs><line class="cls-1" x1="292.89" y1="36.56" x2="7.06" y2="36.56"/><text class="cls-2" transform="translate(3.81 59.99)">SEPTEMBER 22-23, 2026</text><path class="cls-3" d="M6.13,6.18h5.15V29.59H6.13Z"/><path class="cls-3" d="M16,6.18h7l10,16.26H33V6.18h5.16V29.59H31.42L21.2,12.92h-.06V29.59H16Z"/><path class="cls-3" d="M43.13,6.18H58.84v4.76H48.29V15.7H58v4.76H48.29v9.13H43.13Z"/><path class="cls-3" d="M62.74,6.18H78.65v4.76H67.9V15.3H78.05v4.76H67.9v4.76H79.24v4.77H62.74Z"/><path class="cls-3" d="M98.69,12.26a5.55,5.55,0,0,0-4.43-1.92c-3.91,0-6.78,3.18-6.78,7.54s2.87,7.54,6.61,7.54a5.62,5.62,0,0,0,4.83-2.51l4.3,3.2a10.22,10.22,0,0,1-8.47,4.07c-7.31,0-12.63-4.79-12.63-12.3s5.32-12.3,12.63-12.3c2.61,0,5.92.89,7.9,3.44Z"/><path class="cls-3" d="M110.56,10.74h-6.68V6.18H122.4v4.56h-6.68V29.59h-5.16Z"/><path class="cls-3" d="M125,6.18h5.15V29.59H125Z"/><path class="cls-3" d="M146.17,5.58c7.31,0,12.64,4.79,12.64,12.3s-5.33,12.3-12.64,12.3-12.63-4.79-12.63-12.3S138.87,5.58,146.17,5.58Zm0,19.84c4.4,0,7.28-3.18,7.28-7.54s-2.88-7.54-7.28-7.54-7.27,3.18-7.27,7.54S141.78,25.42,146.17,25.42Z"/><path class="cls-3" d="M182.05,20.56c0,5.52-3.37,9.62-9.85,9.62s-9.89-4.1-9.89-9.62V6.18h5.16V20.36a4.73,4.73,0,1,0,9.43,0V6.18h5.15Z"/><path class="cls-3" d="M198.39,11.9a5,5,0,0,0-3.73-1.56c-1.46,0-3.48.66-3.48,2.42,0,4.26,10.78,1.52,10.78,9.72,0,5.22-4.2,7.7-9,7.7a11.1,11.1,0,0,1-7.87-2.94l3.67-4a5.72,5.72,0,0,0,4.49,2.22c1.69,0,3.58-.79,3.58-2.45,0-4.3-11-2-11-9.78,0-5,4.33-7.61,8.93-7.61A10.54,10.54,0,0,1,201.93,8Z"/><path class="cls-3" d="M212.38,23.34h-8.13v-4h8.13Z"/><path class="cls-3" d="M213.28,6.18h5.88L225,21.52H225L230.9,6.18h5.52l-9.65,23.41h-4.14Z"/><path class="cls-3" d="M236.56,6.18h5.88l5.79,15.34h.06l5.89-15.34h5.52l-9.65,23.41h-4.14Z"/><path class="cls-3" d="M262.09,6.18h5.15V29.59h-5.15Z"/><path class="cls-3" d="M287.25,12.26a5.52,5.52,0,0,0-4.43-1.92c-3.9,0-6.78,3.18-6.78,7.54s2.88,7.54,6.61,7.54a5.61,5.61,0,0,0,4.83-2.51l4.3,3.2a10.21,10.21,0,0,1-8.46,4.07c-7.31,0-12.64-4.79-12.64-12.3S276,5.58,283.32,5.58A10,10,0,0,1,291.22,9Z"/></svg>